<svg xmlns="http://www.w3.org/2000/svg" viewBox="0 0 120 120" width="120" height="120"><rect width="120" height="120" fill="#D9EFD3"/><rect x="54" y="22" width="48" height="72" rx="6" fill="#FFFFFF" stroke="#2B2620" stroke-width="4"/><rect x="62" y="30" width="32" height="14" rx="3" fill="#9FD58F" stroke="#2B2620" stroke-width="4"/><circle cx="66" cy="58" r="4" fill="#2B2620"/><circle cx="78" cy="58" r="4" fill="#2B2620"/><circle cx="90" cy="58" r="4" fill="#2B2620"/><circle cx="66" cy="72" r="4" fill="#2B2620"/><circle cx="78" cy="72" r="4" fill="#2B2620"/><circle cx="90" cy="72" r="4" fill="#2B2620"/><path d="M18 92 a16 6 0 1 0 32 0 a16 6 0 1 0 -32 0 Z" fill="#F6C453" stroke="#2B2620" stroke-width="4" stroke-linecap="round" stroke-linejoin="round"/><path d="M18 80 a16 6 0 1 0 32 0 a16 6 0 1 0 -32 0 Z" fill="#F6C453" stroke="#2B2620" stroke-width="4" stroke-linecap="round" stroke-linejoin="round"/><path d="M18 68 a16 6 0 1 0 32 0 a16 6 0 1 0 -32 0 Z" fill="#F6C453" stroke="#2B2620" stroke-width="4" stroke-linecap="round" stroke-linejoin="round"/></svg>
