<svg xmlns="http://www.w3.org/2000/svg" viewBox="0 0 640 360" width="640" height="360"><rect width="640" height="360" fill="#D5EEEA"/><ellipse cx="320" cy="300" rx="300" ry="100" fill="#BBE2DB"/><rect x="80" y="140" width="110" height="80" rx="12" fill="#FFFFFF" stroke="#2B2620" stroke-width="5"/><rect x="265" y="140" width="110" height="80" rx="12" fill="#7CC7BA" stroke="#2B2620" stroke-width="5"/><rect x="450" y="140" width="110" height="80" rx="12" fill="#FFFFFF" stroke="#2B2620" stroke-width="5"/><path d="M195 180 H250 M240 168 l12 12 l-12 12" fill="none" stroke="#2B2620" stroke-width="6" stroke-linecap="round" stroke-linejoin="round" /><path d="M380 180 H435 M425 168 l12 12 l-12 12" fill="none" stroke="#2B2620" stroke-width="6" stroke-linecap="round" stroke-linejoin="round" /><path d="M505 135 C505 70 135 70 135 135" fill="none" stroke="#2B2620" stroke-width="5" stroke-linecap="round" stroke-linejoin="round" stroke-dasharray="4 14"/><path d="M125 120 l10 15 l14 -12" fill="none" stroke="#2B2620" stroke-width="5" stroke-linecap="round" stroke-linejoin="round" /><rect x="105" y="165" width="60" height="10" rx="4" fill="#BBE2DB" /><rect x="105" y="185" width="40" height="10" rx="4" fill="#BBE2DB" /><rect x="475" y="165" width="60" height="10" rx="4" fill="#BBE2DB" /><rect x="475" y="185" width="40" height="10" rx="4" fill="#BBE2DB" /></svg>
